<?xml version="1.0" standalone="no"?>
<!DOCTYPE svg PUBLIC "-//W3C//DTD SVG 20010904//EN"
 "http://www.w3.org/TR/2001/REC-SVG-20010904/DTD/svg10.dtd">
<svg version="1.0" xmlns="http://www.w3.org/2000/svg"
 width="141.000000pt" height="141.000000pt" viewBox="0 0 141.000000 141.000000"
 preserveAspectRatio="xMidYMid meet">
<metadata>
Created by potrace 1.11, written by Peter Selinger 2001-2013
</metadata>
<g transform="translate(0.000000,141.000000) scale(0.100000,-0.100000)"
fill="#000000" stroke="none">
<path d="M152 1016 l-37 -34 -3 -99 c-3 -113 -13 -138 -59 -155 -42 -15 -42
-31 0 -46 46 -17 56 -42 59 -155 l3 -99 37 -34 c39 -35 78 -45 78 -20 0 8 -14
19 -30 25 -43 15 -60 61 -60 165 0 75 -3 88 -24 113 l-24 28 24 28 c21 25 24
38 24 113 0 104 17 150 60 165 16 6 30 17 30 25 0 25 -39 15 -78 -20z"/>
<path d="M1180 1036 c0 -8 11 -17 25 -20 53 -14 65 -38 65 -136 0 -92 11 -132
45 -160 14 -12 13 -16 -12 -42 -26 -27 -28 -36 -31 -126 -3 -112 -13 -137 -59
-154 -39 -14 -44 -38 -7 -38 16 0 39 13 60 34 33 33 34 35 34 120 0 105 17
153 60 169 39 15 38 31 -1 48 -44 18 -59 61 -59 165 0 85 -1 87 -34 120 -35
35 -86 47 -86 20z"/>
<path d="M490 705 l0 -275 210 0 c116 0 210 2 210 4 0 3 -29 46 -65 97 l-65
92 27 14 c43 22 64 44 84 88 23 49 24 94 4 142 -39 93 -86 112 -267 113 l-138
0 0 -275z m281 235 c76 -21 120 -102 99 -179 -11 -43 -69 -101 -99 -101 -11 0
-43 35 -86 98 -38 53 -84 118 -103 145 l-34 47 94 0 c51 0 109 -5 129 -10z
m-150 -147 c45 -65 86 -124 92 -130 7 -10 -11 -13 -87 -13 l-96 0 0 130 c0 72
2 130 4 130 3 0 42 -53 87 -117z m174 -245 c28 -40 52 -76 53 -80 2 -4 -69 -8
-157 -8 l-161 0 0 80 0 80 108 0 107 -1 50 -71z"/>
</g>
</svg>
