<svg xmlns="http://www.w3.org/2000/svg" width="205" height="41.879" viewBox="0 0 205 41.879"><g transform="translate(-203 -9.271)"><path d="M-94.146,0h-1.443V-27.144h10.92a11.058,11.058,0,0,1,5.05,1.17,9.178,9.178,0,0,1,3.686,3.315,9.026,9.026,0,0,1,1.365,4.953,9.308,9.308,0,0,1-1.384,4.953,9.23,9.23,0,0,1-3.764,3.471,10.8,10.8,0,0,1-4.953,1.053h-9.477Zm0-9.672h9.477a9.348,9.348,0,0,0,4.1-.78,7.836,7.836,0,0,0,3.315-2.925,7.865,7.865,0,0,0,1.248-4.329A7.8,7.8,0,0,0-77.259-22a7.787,7.787,0,0,0-3.354-2.925,9.244,9.244,0,0,0-4.056-.78h-9.477ZM-46.488,0H-67.353V-27.144h10.569a11.2,11.2,0,0,1,5.538,1.209,8.424,8.424,0,0,1,3.276,3.2,8.814,8.814,0,0,1,1.17,4.485,8.609,8.609,0,0,1-1.872,5.441,8.813,8.813,0,0,1-4.719,3.179ZM-64.9-25.7l10.608,14.82a7.461,7.461,0,0,0,4.329-2.613,7.234,7.234,0,0,0,1.716-4.758,7.435,7.435,0,0,0-1.053-3.9,6.92,6.92,0,0,0-2.964-2.691,10.06,10.06,0,0,0-4.485-.858Zm-1.014.936v14h10.023Zm0,23.322h16.692L-54.912-9.36l-1.209.039H-65.91Zm37.05-26.286a10.949,10.949,0,0,1,5.616,1.5,11.141,11.141,0,0,1,4.076,4.076,10.949,10.949,0,0,1,1.5,5.616v5.928a10.949,10.949,0,0,1-1.5,5.616A11.14,11.14,0,0,1-23.244-.917,10.949,10.949,0,0,1-28.86.585a10.949,10.949,0,0,1-5.616-1.5,11.141,11.141,0,0,1-4.076-4.076,10.949,10.949,0,0,1-1.5-5.616v-5.928a10.949,10.949,0,0,1,1.5-5.616,11.141,11.141,0,0,1,4.076-4.076A10.949,10.949,0,0,1-28.86-27.729Zm-9.75,17.121A9.551,9.551,0,0,0-37.3-5.714a9.681,9.681,0,0,0,3.549,3.549A9.551,9.551,0,0,0-28.86-.858a9.551,9.551,0,0,0,4.895-1.307,9.681,9.681,0,0,0,3.549-3.549,9.551,9.551,0,0,0,1.306-4.895v-5.928a9.551,9.551,0,0,0-1.306-4.895,9.681,9.681,0,0,0-3.549-3.549,9.551,9.551,0,0,0-4.895-1.307,9.551,9.551,0,0,0-4.895,1.307A9.681,9.681,0,0,0-37.3-21.431a9.551,9.551,0,0,0-1.306,4.895ZM-.195-26.286A9.479,9.479,0,0,0-5.05-24.979a9.832,9.832,0,0,0-3.568,3.549,9.443,9.443,0,0,0-1.326,4.895v5.148a11.509,11.509,0,0,0,.78,4.563A9.748,9.748,0,0,0-5.85-2.691,9.531,9.531,0,0,0-.858-.9V-13.572h11.9V-11A12.454,12.454,0,0,1,10.3-6.552,10.667,10.667,0,0,1,6.24-1.365,11.121,11.121,0,0,1-.195.585,10.932,10.932,0,0,1-6.377-1.268,10.8,10.8,0,0,1-10.452-6.2a13.11,13.11,0,0,1-.936-5.187v-5.148a10.949,10.949,0,0,1,1.5-5.616,11.141,11.141,0,0,1,4.075-4.076,10.949,10.949,0,0,1,5.616-1.5,12.44,12.44,0,0,1,4.641.838,9.724,9.724,0,0,1,3.588,2.438A11.661,11.661,0,0,1,10-21.489a7.8,7.8,0,0,1,.76,3.315H9.36a6.886,6.886,0,0,0-.721-2.847A10.318,10.318,0,0,0,6.9-23.556,9.362,9.362,0,0,0-.195-26.286ZM9.594-12.168H.546V-.9A9.779,9.779,0,0,0,5.6-2.672a9.231,9.231,0,0,0,3.3-4.193A11.488,11.488,0,0,0,9.594-11ZM17.9-27.183h1.56l9.477,16.77,9.438-16.77h1.443V-.039H17.9Zm1.443,25.74H38.376V-24.258L29.6-8.814H28.236L19.344-24.492ZM70.512,0H44.928L57.72-27.729ZM47.19-1.443H68.25L57.72-24.3ZM97.812,0H76.947V-27.144H87.516a11.2,11.2,0,0,1,5.538,1.209,8.424,8.424,0,0,1,3.276,3.2,8.814,8.814,0,0,1,1.17,4.485,8.609,8.609,0,0,1-1.872,5.441,8.813,8.813,0,0,1-4.719,3.179ZM79.4-25.7l10.608,14.82a7.461,7.461,0,0,0,4.329-2.613,7.234,7.234,0,0,0,1.716-4.758A7.435,7.435,0,0,0,95-22.152a6.92,6.92,0,0,0-2.964-2.691,10.06,10.06,0,0,0-4.485-.858Zm-1.014.936v14H88.413Zm0,23.322H95.082L89.388-9.36l-1.209.039H78.39Z" transform="translate(303 37)" fill="#707070"/><path d="M-37.89-6.96v.37h-2.63V0h-.36V-6.59h-2.63v-.37Zm2.19,0h4.9v.37h-4.53v2.82h3.94v.37h-3.94V-.37h4.53V0h-4.9Zm7.41,4.3a2.333,2.333,0,0,0,.335,1.22,2.5,2.5,0,0,0,.9.89,2.387,2.387,0,0,0,1.225.33A2.754,2.754,0,0,0-24.6-.49a2.135,2.135,0,0,0,.865-.75,1.988,1.988,0,0,0,.325-1.08h.36a2.264,2.264,0,0,1-.365,1.255,2.542,2.542,0,0,1-1,.89A3.06,3.06,0,0,1-25.83.15a2.745,2.745,0,0,1-1.41-.38,2.838,2.838,0,0,1-1.03-1.025,2.719,2.719,0,0,1-.38-1.4V-4.3a2.746,2.746,0,0,1,.375-1.4,2.811,2.811,0,0,1,1.02-1.025,2.719,2.719,0,0,1,1.405-.38,3.038,3.038,0,0,1,1.405.325,2.58,2.58,0,0,1,1,.89,2.242,2.242,0,0,1,.37,1.255h-.36a1.965,1.965,0,0,0-.33-1.08,2.179,2.179,0,0,0-.865-.75,2.722,2.722,0,0,0-1.225-.27,2.36,2.36,0,0,0-1.22.33,2.476,2.476,0,0,0-.89.89,2.36,2.36,0,0,0-.33,1.22ZM-21.18,0V-6.96h.37v3.29h4.62V-6.96h.37V0h-.37V-3.3h-4.62V0Zm7.36,0V-6.96h.39l4.86,4.72V-6.96h.37V0h-.37V-1.72l-4.88-4.76V0ZM-3.7-7.11a2.807,2.807,0,0,1,1.44.385A2.857,2.857,0,0,1-1.215-5.68,2.807,2.807,0,0,1-.83-4.24v1.52a2.807,2.807,0,0,1-.385,1.44A2.857,2.857,0,0,1-2.26-.235,2.807,2.807,0,0,1-3.7.15,2.807,2.807,0,0,1-5.14-.235,2.857,2.857,0,0,1-6.185-1.28,2.807,2.807,0,0,1-6.57-2.72V-4.24a2.807,2.807,0,0,1,.385-1.44A2.857,2.857,0,0,1-5.14-6.725,2.807,2.807,0,0,1-3.7-7.11ZM-6.2-2.72a2.449,2.449,0,0,0,.335,1.255,2.482,2.482,0,0,0,.91.91A2.449,2.449,0,0,0-3.7-.22,2.449,2.449,0,0,0-2.445-.555a2.482,2.482,0,0,0,.91-.91A2.449,2.449,0,0,0-1.2-2.72V-4.24A2.449,2.449,0,0,0-1.535-5.5a2.482,2.482,0,0,0-.91-.91A2.449,2.449,0,0,0-3.7-6.74a2.449,2.449,0,0,0-1.255.335,2.482,2.482,0,0,0-.91.91A2.449,2.449,0,0,0-6.2-4.24ZM1.55,0V-6.96h.37V-.37H6.77V0ZM11.1-7.11a2.807,2.807,0,0,1,1.44.385A2.857,2.857,0,0,1,13.585-5.68a2.807,2.807,0,0,1,.385,1.44v1.52a2.807,2.807,0,0,1-.385,1.44A2.857,2.857,0,0,1,12.54-.235,2.807,2.807,0,0,1,11.1.15,2.807,2.807,0,0,1,9.66-.235,2.857,2.857,0,0,1,8.615-1.28,2.807,2.807,0,0,1,8.23-2.72V-4.24a2.807,2.807,0,0,1,.385-1.44A2.857,2.857,0,0,1,9.66-6.725,2.807,2.807,0,0,1,11.1-7.11ZM8.6-2.72a2.449,2.449,0,0,0,.335,1.255,2.482,2.482,0,0,0,.91.91A2.449,2.449,0,0,0,11.1-.22a2.449,2.449,0,0,0,1.255-.335,2.482,2.482,0,0,0,.91-.91A2.449,2.449,0,0,0,13.6-2.72V-4.24A2.449,2.449,0,0,0,13.265-5.5a2.482,2.482,0,0,0-.91-.91A2.449,2.449,0,0,0,11.1-6.74a2.449,2.449,0,0,0-1.255.335,2.482,2.482,0,0,0-.91.91A2.449,2.449,0,0,0,8.6-4.24ZM20.95-1.43A2.339,2.339,0,0,1,19.97-.3,2.812,2.812,0,0,1,18.45.15a2.78,2.78,0,0,1-1.44-.39,2.84,2.84,0,0,1-1.045-1.075A3.019,3.019,0,0,1,15.58-2.82v-1.4a2.845,2.845,0,0,1,.385-1.46A2.868,2.868,0,0,1,17-6.725,2.8,2.8,0,0,1,18.45-7.11a3.19,3.19,0,0,1,1.19.215,2.493,2.493,0,0,1,.92.625,2.99,2.99,0,0,1,.5.76,2,2,0,0,1,.195.85H20.9a1.766,1.766,0,0,0-.185-.73,2.646,2.646,0,0,0-.445-.65,2.4,2.4,0,0,0-1.82-.7,2.468,2.468,0,0,0-1.265.335,2.444,2.444,0,0,0-.905.91,2.516,2.516,0,0,0-.33,1.275v1.4A2.654,2.654,0,0,0,16.285-1.5a2.477,2.477,0,0,0,.91.935,2.421,2.421,0,0,0,1.255.34,2.468,2.468,0,0,0,1.265-.335,2.444,2.444,0,0,0,.9-.91,2.478,2.478,0,0,0,.33-1.255v-.35h-2.5v-.37h2.87V0h-.37Zm7.21-5.53v.37H26.08V-.37h2.08V0H23.65V-.37h2.07V-6.59H23.65v-.37Zm2.74,0h4.9v.37H31.27v2.82h3.94v.37H31.27V-.37H35.8V0H30.9Zm9.95,3.63a8.787,8.787,0,0,1-1.385-.375,2.045,2.045,0,0,1-.84-.56,1.354,1.354,0,0,1-.305-.915,1.746,1.746,0,0,1,.305-1.02,1.964,1.964,0,0,1,.86-.68,3.214,3.214,0,0,1,1.285-.24,2.813,2.813,0,0,1,1.285.3A2.312,2.312,0,0,1,42.98-6a2.192,2.192,0,0,1,.34,1.21h-.37a1.877,1.877,0,0,0-.29-1.04,1.928,1.928,0,0,0-.79-.7,2.488,2.488,0,0,0-1.11-.245,2.947,2.947,0,0,0-1.01.17,1.76,1.76,0,0,0-.765.52,1.318,1.318,0,0,0-.3.88,1.044,1.044,0,0,0,.28.765A1.8,1.8,0,0,0,39.7-4a11.988,11.988,0,0,0,1.26.32,11.246,11.246,0,0,1,1.275.325,1.76,1.76,0,0,1,.77.515,1.484,1.484,0,0,1,.315,1.01,1.733,1.733,0,0,1-.345,1.1,2.074,2.074,0,0,1-.915.665,3.415,3.415,0,0,1-1.24.22,3.268,3.268,0,0,1-1.46-.31,2.24,2.24,0,0,1-.965-.875,2.491,2.491,0,0,1-.335-1.3h.37a2.152,2.152,0,0,0,.285,1.12,1.91,1.91,0,0,0,.825.745A2.877,2.877,0,0,0,40.82-.2a2.526,2.526,0,0,0,1.525-.44,1.405,1.405,0,0,0,.6-1.2,1.133,1.133,0,0,0-.26-.8,1.487,1.487,0,0,0-.655-.405Q41.64-3.17,40.85-3.33Z" transform="translate(307 51)" fill="#707070"/><path d="M0,0H40" transform="translate(203 47.5)" fill="none" stroke="#707070" stroke-width="1"/><path d="M40,0H0" transform="translate(368 47.5)" fill="none" stroke="#707070" stroke-width="1"/><g transform="translate(243 44)" fill="none"><path d="M3.5,0A3.5,3.5,0,1,1,0,3.5,3.5,3.5,0,0,1,3.5,0Z" stroke="none"/><path d="M 3.5 1 C 2.121500015258789 1 1 2.121500015258789 1 3.5 C 1 4.878499984741211 2.121500015258789 6 3.5 6 C 4.878499984741211 6 6 4.878499984741211 6 3.5 C 6 2.121500015258789 4.878499984741211 1 3.5 1 M 3.5 0 C 5.433000087738037 0 7 1.566999912261963 7 3.5 C 7 5.433000087738037 5.433000087738037 7 3.5 7 C 1.566999912261963 7 0 5.433000087738037 0 3.5 C 0 1.566999912261963 1.566999912261963 0 3.5 0 Z" stroke="none" fill="#707070"/></g><g transform="translate(361 44)" fill="none"><path d="M3.5,0A3.5,3.5,0,1,1,0,3.5,3.5,3.5,0,0,1,3.5,0Z" stroke="none"/><path d="M 3.5 1 C 2.121500015258789 1 1 2.121500015258789 1 3.5 C 1 4.878499984741211 2.121500015258789 6 3.5 6 C 4.878499984741211 6 6 4.878499984741211 6 3.5 C 6 2.121500015258789 4.878499984741211 1 3.5 1 M 3.5 0 C 5.433000087738037 0 7 1.566999912261963 7 3.5 C 7 5.433000087738037 5.433000087738037 7 3.5 7 C 1.566999912261963 7 0 5.433000087738037 0 3.5 C 0 1.566999912261963 1.566999912261963 0 3.5 0 Z" stroke="none" fill="#707070"/></g></g></svg>