<svg xmlns="http://www.w3.org/2000/svg" width="40.17" height="40" viewBox="0 0 40.17 40"><g transform="translate(-202.915 -668)"><path d="M20,0A20,20,0,1,1,0,20,20,20,0,0,1,20,0Z" transform="translate(203 668)" fill="rgba(255,255,255,0)"/><path d="M-.13,6.59a5.111,5.111,0,0,1,.7-2.608A5.2,5.2,0,0,1,2.46,2.075a5.082,5.082,0,0,1,2.625-.7v1.26A3.83,3.83,0,0,0,2.3,3.79,3.785,3.785,0,0,0,1.13,6.59v5.6A5.077,5.077,0,0,1,.4,14.85a5.08,5.08,0,0,1-1.96,1.89A5.08,5.08,0,0,1,.4,18.63a5.14,5.14,0,0,1,.735,2.7v5.6A3.745,3.745,0,0,0,2.3,29.69a3.83,3.83,0,0,0,2.783,1.155v1.3a5.082,5.082,0,0,1-2.625-.7A5.2,5.2,0,0,1,.57,29.532a5.111,5.111,0,0,1-.7-2.608v-5.6A3.772,3.772,0,0,0-1.285,18.56a3.813,3.813,0,0,0-2.8-1.155v-1.3A3.83,3.83,0,0,0-1.3,14.955,3.745,3.745,0,0,0-.13,12.19Z" transform="translate(207 672)" fill="#707070"/><path d="M-4.085,30.845a3.813,3.813,0,0,0,2.8-1.155A3.772,3.772,0,0,0-.13,26.925v-5.6a5.14,5.14,0,0,1,.735-2.7,5.08,5.08,0,0,1,1.96-1.89A5.2,5.2,0,0,1-.13,12.19V6.59a3.813,3.813,0,0,0-1.155-2.8,3.813,3.813,0,0,0-2.8-1.155V1.375a5.082,5.082,0,0,1,2.625.7A5.241,5.241,0,0,1,.43,3.965a5.082,5.082,0,0,1,.7,2.625v5.6A3.745,3.745,0,0,0,2.3,14.955,3.83,3.83,0,0,0,5.085,16.11v1.3a3.813,3.813,0,0,0-2.8,1.155A3.772,3.772,0,0,0,1.13,21.325v5.6a5.111,5.111,0,0,1-.7,2.608A5.2,5.2,0,0,1-1.46,31.44a5.082,5.082,0,0,1-2.625.7Z" transform="translate(238 672)" fill="#707070"/><path d="M17.928,28H1.343V6.424h8.4a8.9,8.9,0,0,1,4.4.961,6.7,6.7,0,0,1,2.6,2.542,7.006,7.006,0,0,1,.93,3.565,6.843,6.843,0,0,1-1.488,4.325,7,7,0,0,1-3.751,2.527ZM3.3,7.571l8.432,11.78a5.93,5.93,0,0,0,3.441-2.077,5.75,5.75,0,0,0,1.364-3.782,5.91,5.91,0,0,0-.837-3.1A5.5,5.5,0,0,0,13.34,8.253a8,8,0,0,0-3.565-.682Zm-.806.744V19.444h7.967Zm0,18.538H15.758L11.232,20.56l-.961.031H2.49Z" transform="translate(214 671)" fill="#707070"/></g></svg>