<svg xmlns="http://www.w3.org/2000/svg" xmlns:xlink="http://www.w3.org/1999/xlink" width="40" height="40" viewBox="0 0 40 40"><defs><clipPath id="a"><circle cx="20" cy="20" r="20" transform="translate(986 615)" fill="#fff"/></clipPath></defs><g transform="translate(-986 -615)" opacity="0.7" clip-path="url(#a)"><g transform="translate(986 615)"><circle cx="20" cy="20" r="20" transform="translate(0 0)" fill="#707070"/><path d="M31.95,21.609v8.246H27.169V22.162c0-1.932-.69-3.251-2.421-3.251A2.615,2.615,0,0,0,22.3,20.659a3.272,3.272,0,0,0-.158,1.165v8.03H17.357s.064-13.029,0-14.378h4.781v2.038c-.01.016-.023.032-.032.047h.032v-.047a4.747,4.747,0,0,1,4.309-2.375c3.145,0,5.5,2.055,5.5,6.47ZM12.356,8.545a2.491,2.491,0,1,0-.063,4.969h.031a2.492,2.492,0,1,0,.032-4.969ZM9.934,29.855h4.779V15.476H9.934Z" fill="#333"/></g></g></svg>